<?xml version="1.0" encoding="UTF-8"?>
<svg id="Layer_1" data-name="Layer 1" xmlns="http://www.w3.org/2000/svg" version="1.1" viewBox="0 0 48 48">
  <defs>
    <style>
      .cls-1 {
        fill: #fff;
        fill-rule: evenodd;
        stroke-width: 0px;
      }
    </style>
  </defs>
  <path class="cls-1" d="M23.4,41.8s0,0,.6-.8l-.6.8ZM24.6,41.8s0,0-.6-.8l.6.8ZM24.6,41.8h0s0,0,0,0h0s0,0,.1-.1c.1,0,.2-.2.4-.3.4-.3.9-.7,1.5-1.2,1.2-1.1,2.9-2.6,4.6-4.5,3.3-3.8,6.7-9.3,6.7-15.5s-1.5-7.3-4.1-10c-2.6-2.6-6.2-4.1-9.9-4.1s-7.3,1.5-9.9,4.1c-2.6,2.6-4.1,6.2-4.1,10,0,6.2,3.4,11.7,6.7,15.5,1.7,1.9,3.3,3.5,4.6,4.5.6.5,1.1.9,1.5,1.2.2.1.3.2.4.3,0,0,0,0,.1,0h0s0,0,0,0h0c.3.2.8.2,1.2,0ZM24,25c2.8,0,5-2.2,5-5s-2.2-5-5-5-5,2.2-5,5,2.2,5,5,5Z"/>
</svg>